<svg width="212" height="55" viewBox="0 0 212 55" fill="none" xmlns="http://www.w3.org/2000/svg"><path fill-rule="evenodd" clip-rule="evenodd" d="M56.253 47.53h-4.881l-1.049 2.4h-.958l4-9h.907l4 9h-.97l-1.049-2.4zm-.35-.774l-2.136-4.84-2.059 4.787 4.195.053zm4.48-2.267c.192-.439.52-.8.932-1.026a3.134 3.134 0 011.528-.347v.92h-.207a2.03 2.03 0 00-.885.142 2.083 2.083 0 00-.746.511 2.72 2.72 0 00-.583 1.84v3.44h-.893v-6.76h.854v1.334-.054zm12.248-1.333c.358-.024.716.03 1.053.156.336.126.644.323.903.577a3.031 3.031 0 01.698 2.16v3.92h-.88v-3.826a2.325 2.325 0 00-.505-1.614 1.797 1.797 0 00-.635-.427 1.753 1.753 0 00-.75-.12 2.065 2.065 0 00-1.618.654 2.568 2.568 0 00-.583 1.787v3.546h-.893v-3.826a2.326 2.326 0 00-.492-1.614 1.808 1.808 0 00-.642-.428 1.764 1.764 0 00-.757-.118 2.018 2.018 0 00-.872.146 2.07 2.07 0 00-.733.507 2.484 2.484 0 00-.47.832 2.534 2.534 0 00-.126.955v3.546h-.893v-6.76h.854v1.24c.229-.408.566-.741.971-.96a3.02 3.02 0 011.438-.333c.501-.014.998.11 1.437.36.404.248.72.622.906 1.067.24-.446.6-.812 1.036-1.054a3.275 3.275 0 011.553-.373zm10.812 3.72h-5.49c.012.324.086.641.22.935.133.293.323.555.557.772.499.44 1.142.67 1.8.64a2.79 2.79 0 001.126-.214c.34-.153.645-.38.893-.666l.492.586c-.289.366-.663.65-1.087.827a3.671 3.671 0 01-1.45.28 3.565 3.565 0 01-1.787-.44 3.126 3.126 0 01-1.217-1.227 3.522 3.522 0 01-.44-1.773 3.756 3.756 0 01.414-1.773c.269-.51.667-.934 1.152-1.227a3.14 3.14 0 011.644-.44 3.064 3.064 0 011.632.44c.484.285.879.706 1.14 1.213.287.548.43 1.164.414 1.787v.28h-.013zm-3.172-2.933a2.158 2.158 0 00-1.593.627 2.458 2.458 0 00-.725 1.626h4.661a2.525 2.525 0 00-.738-1.627 2.193 2.193 0 00-.741-.48 2.142 2.142 0 00-.865-.146zm8.35-.787c.36-.017.72.04 1.058.169.338.128.647.325.91.578.256.288.452.628.576.997.125.369.176.76.15 1.15v3.92h-.88v-3.827a2.324 2.324 0 00-.519-1.614 1.934 1.934 0 00-.676-.43 1.89 1.89 0 00-.787-.116 2.168 2.168 0 00-.908.144 2.22 2.22 0 00-.775.509 2.49 2.49 0 00-.477.83 2.534 2.534 0 00-.131.957v3.546h-.894v-6.76h.868v1.24c.239-.406.584-.734.997-.946a3.173 3.173 0 011.502-.347h-.013zm5.102 0h.893v6.76h-.893v-6.76zm.453-1.48a.619.619 0 01-.466-.2.643.643 0 01-.181-.453.676.676 0 01.194-.463.638.638 0 01.453-.19.663.663 0 01.466.186c.115.121.18.284.181.453a.656.656 0 01-.394.617.618.618 0 01-.253.05zm5.179 1.427a2.733 2.733 0 011.981.666 2.636 2.636 0 01.686 1.96v4.187h-.854v-1.053a1.992 1.992 0 01-.881.826 2.94 2.94 0 01-1.372.294 2.626 2.626 0 01-1.748-.534 1.723 1.723 0 01-.502-.623 1.776 1.776 0 01-.171-.79 1.819 1.819 0 01.15-.771 1.77 1.77 0 01.458-.63 2.926 2.926 0 011.93-.52h2.084v-.412a1.818 1.818 0 00-.097-.718 1.774 1.774 0 00-.369-.616 1.918 1.918 0 00-1.386-.453c-.41-.003-.818.07-1.204.213a2.73 2.73 0 00-.984.587l-.401-.68a3.582 3.582 0 011.204-.68 4.49 4.49 0 011.463-.24l.013-.013zm-.31 6.16a2.38 2.38 0 001.294-.347c.36-.25.636-.609.79-1.027v-1.106h-2.046c-1.126 0-1.683.4-1.683 1.213-.006.18.03.36.107.523a1.1 1.1 0 00.333.41c.36.246.787.363 1.217.334h-.013zm8.739-6.16c.36-.018.719.04 1.057.168.338.128.648.325.911.578a2.934 2.934 0 01.725 2.147v3.92h-.881v-3.827a2.27 2.27 0 00-.517-1.613 1.945 1.945 0 00-.677-.43 1.888 1.888 0 00-.787-.117 2.181 2.181 0 00-.908.145 2.243 2.243 0 00-.775.509 2.49 2.49 0 00-.477.83 2.54 2.54 0 00-.131.956v3.547h-.894v-6.76h.855v1.24c.239-.406.585-.734.997-.947a3.21 3.21 0 011.502-.346zm14.371-2.734v9.547h-.841v-1.333a2.79 2.79 0 01-1.062 1.04 3 3 0 01-1.476.36 3.201 3.201 0 01-1.67-.44 2.994 2.994 0 01-1.178-1.214 3.948 3.948 0 010-3.573 3.02 3.02 0 011.178-1.227 3.315 3.315 0 011.67-.426c.499-.006.992.113 1.437.346.434.225.8.566 1.062.987v-4.067h.88zm-3.301 8.8c.451.012.897-.099 1.295-.32a2.38 2.38 0 00.867-.933 2.83 2.83 0 00.324-1.333 2.882 2.882 0 00-.324-1.334 2.38 2.38 0 00-.867-.933 2.608 2.608 0 00-2.499 0c-.37.223-.675.546-.881.933-.204.413-.31.87-.31 1.334-.002.463.104.92.31 1.333.206.387.511.71.881.933a2.45 2.45 0 001.294.32h-.09zm5.787-6.013h.881v6.76h-.881v-6.76zm.441-1.48a.572.572 0 01-.454-.2.603.603 0 01-.194-.453.62.62 0 01.194-.454.572.572 0 01.454-.2.665.665 0 01.466.187.603.603 0 01.181.453.599.599 0 01-.181.467.62.62 0 01-.466.2zm9.063 1.48v5.947c.037.459-.016.92-.156 1.358a3.45 3.45 0 01-.66 1.188 3.35 3.35 0 01-1.156.67 3.274 3.274 0 01-1.317.157 5.242 5.242 0 01-1.722-.267 3.378 3.378 0 01-1.295-.773l.454-.694a3.21 3.21 0 001.152.68 3.94 3.94 0 001.424.254 2.084 2.084 0 001.827-.595c.238-.24.417-.535.522-.86a2.24 2.24 0 00.085-1.012v-.853c-.275.415-.65.75-1.087.973-.46.23-.966.343-1.476.334a3.406 3.406 0 01-1.684-.414 3.013 3.013 0 01-1.191-1.173 3.393 3.393 0 01-.427-1.707c-.01-.594.138-1.18.427-1.693a2.941 2.941 0 011.178-1.16 3.417 3.417 0 011.697-.413 3.242 3.242 0 011.501.346c.445.226.821.571 1.088 1v-1.333l.816.04zm-3.367 5.693c.449.005.893-.1 1.295-.306.369-.207.677-.51.894-.88.214-.41.321-.869.31-1.334a2.594 2.594 0 00-.31-1.333 2.182 2.182 0 00-.894-.867 2.528 2.528 0 00-1.295-.32 2.663 2.663 0 00-1.294.307c-.38.19-.692.498-.894.88a2.61 2.61 0 00-.323 1.333c-.007.466.104.926.323 1.334.21.375.52.68.894.88.4.21.845.315 1.294.306zm5.853-5.693h.893v6.76h-.893v-6.76zm.453-1.48a.616.616 0 01-.466-.2.586.586 0 01-.182-.453.629.629 0 01.044-.247.592.592 0 01.138-.207.624.624 0 01.466-.2.606.606 0 01.453.187.625.625 0 01.194.453.687.687 0 01-.193.468.653.653 0 01-.454.2zm6.37 7.84a1.773 1.773 0 01-.622.346c-.247.08-.504.12-.763.12a1.905 1.905 0 01-.762-.106 1.95 1.95 0 01-.663-.4 1.98 1.98 0 01-.397-.673 2.024 2.024 0 01-.108-.78v-4.094h-1.165v-.773h1.165v-1.48h.894v1.48h1.994v.773h-1.994v4c-.02.333.081.661.285.92a1.12 1.12 0 00.854.307c.18 0 .359-.027.531-.08.162-.06.311-.15.44-.267l.311.667v.04zm3.884-6.413a2.718 2.718 0 011.968.666 2.577 2.577 0 01.686 1.96v4.187h-.841v-1.053a2.07 2.07 0 01-.881.826 3.002 3.002 0 01-1.385.294 2.676 2.676 0 01-1.748-.534 1.874 1.874 0 01-.628-1.413 1.873 1.873 0 01.628-1.413 2.925 2.925 0 011.929-.52h2.085v-.414a1.722 1.722 0 00-.479-1.333 1.906 1.906 0 00-1.386-.453 3.254 3.254 0 00-1.191.213 2.888 2.888 0 00-.997.587l-.401-.68a3.577 3.577 0 011.204-.68 4.514 4.514 0 011.476-.24h-.039zm-.311 6.16c.455.013.904-.107 1.295-.347.364-.25.644-.608.803-1.027v-1.106h-2.136c-1.127 0-1.697.4-1.697 1.213a1.158 1.158 0 00.441.933c.382.26.839.377 1.294.334zm5.387-8.894h.88v9.547h-.88v-9.547zm12.623 0v9.547h-.841v-1.333a2.79 2.79 0 01-1.062 1.04 3.037 3.037 0 01-1.476.36 3.277 3.277 0 01-1.683-.44 3.05 3.05 0 01-1.165-1.214 3.935 3.935 0 01-.427-1.786c0-.623.146-1.236.427-1.787a3.077 3.077 0 011.165-1.227 3.402 3.402 0 011.683-.426c.499-.006.992.113 1.437.346.431.229.797.569 1.062.987v-4.067h.88zm-3.301 8.8c.451.012.897-.099 1.294-.32.367-.224.667-.547.868-.933a2.83 2.83 0 00.324-1.333c0-.465-.111-.924-.324-1.334a2.376 2.376 0 00-.868-.933 2.6 2.6 0 00-2.498 0c-.373.22-.679.543-.881.933a3.033 3.033 0 00-.324 1.334c.003.464.114.922.324 1.333.202.39.508.714.881.933a2.45 2.45 0 001.294.32h-.09zm5.774-6.013h.894v6.76h-.894v-6.76zm.453-1.48a.62.62 0 01-.466-.2.65.65 0 01-.181-.453.674.674 0 01.194-.463.638.638 0 01.453-.19.666.666 0 01.467.186c.115.121.18.284.181.453a.658.658 0 01-.394.617.624.624 0 01-.254.05zm5.179 1.427a2.73 2.73 0 011.981.666c.241.26.427.568.545.906.118.337.166.696.142 1.054v4.187h-.855v-1.053a1.99 1.99 0 01-.88.826 2.943 2.943 0 01-1.373.294 2.628 2.628 0 01-1.748-.534 1.73 1.73 0 01-.494-.625 1.768 1.768 0 01-.166-.788 1.806 1.806 0 01.608-1.4 2.929 2.929 0 011.93-.52h2.084v-.413a1.818 1.818 0 00-.097-.718 1.774 1.774 0 00-.369-.616 1.917 1.917 0 00-1.385-.453 3.38 3.38 0 00-1.204.213c-.365.123-.7.323-.984.587l-.402-.68a3.586 3.586 0 011.204-.68 4.49 4.49 0 011.463-.24v-.013zm-.31 6.16c.454.01.903-.11 1.294-.347.36-.25.636-.609.79-1.027v-1.106h-2.033c-1.126 0-1.683.4-1.683 1.213-.006.18.031.36.108.523.076.163.191.303.333.41.359.246.786.363 1.217.334h-.026zm7.147.72a4.887 4.887 0 01-1.528-.24 2.988 2.988 0 01-1.14-.587l.402-.72a3.64 3.64 0 001.036.547c.419.134.855.201 1.294.2.448.023.894-.073 1.295-.28a.92.92 0 00.322-.355.954.954 0 00.105-.472.732.732 0 00-.233-.573 1.628 1.628 0 00-.595-.334 7.753 7.753 0 00-.971-.2c-.437-.081-.87-.188-1.295-.32a1.86 1.86 0 01-.829-.546 1.522 1.522 0 01-.349-1.067 1.7 1.7 0 01.188-.751c.119-.232.29-.431.498-.582a3.055 3.055 0 011.916-.547c.437-.004.873.055 1.295.173a3.54 3.54 0 011.049.454l-.389.733a3.192 3.192 0 00-1.929-.573 2.227 2.227 0 00-1.295.306.935.935 0 00-.316.35.97.97 0 00-.111.464.818.818 0 00.233.613c.177.159.384.277.609.347.246 0 .582.146.997.226.438.07.87.173 1.294.307.31.1.591.279.816.52.235.29.355.662.337 1.04.004.277-.061.551-.188.796a1.615 1.615 0 01-.537.604 3.343 3.343 0 01-1.994.52l.013-.053zm7.768-6.88a3.388 3.388 0 011.67.426 3.12 3.12 0 011.179 1.227c.282.55.424 1.165.414 1.787a3.865 3.865 0 01-.414 1.8 3.08 3.08 0 01-1.179 1.213 3.314 3.314 0 01-1.67.427c-.502.01-1-.104-1.45-.334a2.726 2.726 0 01-1.049-1v3.773h-.893V43.09h.854v1.334c.252-.435.615-.79 1.049-1.027.46-.245.971-.369 1.489-.36v.067zm-.065 6.066c.452.012.898-.099 1.295-.32.373-.22.678-.543.881-.933a2.83 2.83 0 00.323-1.333 2.732 2.732 0 00-.323-1.334 2.324 2.324 0 00-.881-.933 2.53 2.53 0 00-2.499 0c-.37.223-.674.546-.88.933a2.93 2.93 0 00-.311 1.334c-.002.463.105.92.311 1.333.206.387.51.71.88.933.396.225.843.335 1.295.32h-.091zm7.834.814a3.337 3.337 0 01-1.709-.44 3.087 3.087 0 01-1.205-1.227 3.78 3.78 0 01-.44-1.773c0-.62.151-1.23.44-1.774a3.01 3.01 0 011.205-1.226 3.537 3.537 0 013.418 0c.502.284.915.71 1.191 1.226a3.62 3.62 0 01.427 1.774 3.663 3.663 0 01-.427 1.773 3.144 3.144 0 01-1.191 1.226 3.342 3.342 0 01-1.709.44zm0-.814c.451.012.897-.099 1.294-.32a2.39 2.39 0 00.868-.933 2.97 2.97 0 00.311-1.333 3.027 3.027 0 00-.311-1.334 2.39 2.39 0 00-.868-.933 2.527 2.527 0 00-1.294-.32 2.454 2.454 0 00-1.295.32c-.37.223-.675.546-.881.933a3.012 3.012 0 000 2.667c.206.387.511.71.881.933.396.225.843.335 1.295.32zm5.994-4.693c.192-.44.52-.8.932-1.027a3.136 3.136 0 011.528-.346v.933h-.207a2.026 2.026 0 00-.885.142 2.074 2.074 0 00-.746.511 2.722 2.722 0 00-.583 1.84v3.44h-.893v-6.76h.854v1.334-.067zm6.344-1.333a2.768 2.768 0 011.981.666c.241.26.427.568.545.906.118.337.166.696.142 1.054v4.187h-.855v-1.053a1.99 1.99 0 01-.88.826 2.969 2.969 0 01-1.386.294 2.679 2.679 0 01-1.748-.534 1.874 1.874 0 01-.628-1.413 1.873 1.873 0 01.628-1.413 2.929 2.929 0 011.93-.52h2.084v-.414a1.722 1.722 0 00-.479-1.333 1.904 1.904 0 00-1.385-.453 3.26 3.26 0 00-1.192.213 2.709 2.709 0 00-.983.587l-.402-.68a3.395 3.395 0 011.191-.68 4.514 4.514 0 011.476-.24h-.039zm-.31 6.16c.455.015.904-.105 1.294-.347.368-.245.649-.605.803-1.027v-1.106h-2.058c-1.127 0-1.684.4-1.684 1.213-.006.18.029.358.103.52.075.163.186.304.325.413.36.23.781.337 1.204.307l.013.026z" fill="#828282"/><path fill-rule="evenodd" clip-rule="evenodd" d="M61.255 29.737h-6.992l-1.335 3.323h-3.563l6.723-15.507h3.438l6.723 15.507h-3.65l-1.344-3.323zm-1.095-2.72l-2.392-5.934-2.381 5.934h4.773zm50.842-9.464a8.194 8.194 0 013.477.692 5.269 5.269 0 012.303 1.983c.563.88.863 1.909.863 2.962 0 1.053-.3 2.082-.863 2.961a5.27 5.27 0 01-2.303 1.984 8.35 8.35 0 01-3.477.672h-3.025v4.273h-3.486V17.563l6.511-.01zm-.192 8.307a3.6 3.6 0 002.391-.692 2.78 2.78 0 00.595-.906 2.866 2.866 0 000-2.144 2.78 2.78 0 00-.595-.906 3.6 3.6 0 00-2.391-.702h-2.881v5.38l2.881-.03zm-38.415-3.145a3.773 3.773 0 011.623-1.305 5.86 5.86 0 012.353-.445v3.194l-.75-.05a2.991 2.991 0 00-1.21.18 3.057 3.057 0 00-1.046.651 3.365 3.365 0 00-.656 1.16c-.14.429-.195.882-.16 1.332v5.628h-3.362V21.152h3.208v1.573-.01zm22.444-1.75a4.526 4.526 0 011.857.296 4.63 4.63 0 011.59 1.029 5.381 5.381 0 011.035 1.843c.22.68.307 1.398.253 2.113v6.824h-3.362v-6.3a3.346 3.346 0 00-.566-2.116 2.009 2.009 0 00-.734-.54 1.954 1.954 0 00-.89-.153 2.34 2.34 0 00-1.01.207 2.406 2.406 0 00-.833.624 3.452 3.452 0 00-.692 2.334v5.983h-3.352v-6.34c0-1.878-.73-2.808-2.199-2.808a2.3 2.3 0 00-1.006.18c-.318.136-.604.34-.838.602a3.452 3.452 0 00-.691 2.333v5.984h-3.352V21.152h3.208v1.375a4.14 4.14 0 011.575-1.147 5.157 5.157 0 012.055-.405 4.837 4.837 0 012.219.504c.648.319 1.198.82 1.584 1.444a4.872 4.872 0 011.796-1.434 5.62 5.62 0 012.382-.515l-.03-.01zm26.775-4.342h3.352V33.06h-3.352V16.623zm12.821 4.351c1.489-.1 2.96.372 4.13 1.326a5.04 5.04 0 011.144 1.814 5.18 5.18 0 01.297 2.142v6.794h-3.141v-1.484c-.634 1.108-1.805 1.662-3.524 1.662a5.395 5.395 0 01-2.315-.465 3.48 3.48 0 01-1.498-1.286 3.397 3.397 0 01-.519-1.859 3.192 3.192 0 01.296-1.46c.213-.456.53-.85.924-1.15a6 6 0 013.755-.99h2.66a2.217 2.217 0 00-.662-1.73 2.881 2.881 0 00-1.998-.614c-.616 0-1.229.1-1.815.297a4.758 4.758 0 00-1.518.811l-1.21-2.413a7.436 7.436 0 012.276-1.068c.886-.25 1.8-.377 2.718-.376v.05zm-.259 9.95a2.815 2.815 0 001.527-.416c.453-.267.795-.697.96-1.206v-1.217h-2.324c-1.373 0-2.064.465-2.064 1.395-.008.205.033.409.12.593.087.185.217.345.379.465.413.277.9.412 1.392.386h.01zm17.969 1.572c-.37.264-.783.455-1.22.564a5.806 5.806 0 01-1.517.188 4.413 4.413 0 01-3.189-1.088 4.139 4.139 0 01-.9-1.467 4.23 4.23 0 01-.233-1.718V24.08H143.3v-2.66h1.786v-2.898h3.361v2.898h2.881v2.66h-2.881v4.846c-.026.424.108.842.375 1.167a1.379 1.379 0 001.066.405 2.11 2.11 0 001.354-.445l.903 2.443zm7.212-11.077h2.929v2.66h-2.881v8.99h-3.351v-8.99h-1.787v-2.66h1.787v-.534a4.43 4.43 0 01.259-1.742 4.36 4.36 0 01.912-1.492 4.477 4.477 0 011.53-.94 4.382 4.382 0 011.764-.256c.482-.001.962.055 1.431.168.401.091.785.252 1.133.475L162.2 19.6a2.259 2.259 0 00-1.354-.416c-1.018 0-1.527.574-1.527 1.731v.505h.038zm11.64 11.868a6.788 6.788 0 01-3.275-.791 5.607 5.607 0 01-2.266-2.176 6.544 6.544 0 01-.816-3.17 6.55 6.55 0 01.816-3.17 5.664 5.664 0 012.266-2.175 7.194 7.194 0 013.275-.79c1.136 0 2.257.27 3.275.79a5.765 5.765 0 012.257 2.176 6.555 6.555 0 010 6.34 5.702 5.702 0 01-2.257 2.175 6.736 6.736 0 01-3.275.791zm0-2.838c.395.014.788-.058 1.154-.212.365-.153.695-.384.968-.678a3.89 3.89 0 00.827-2.403 3.89 3.89 0 00-.827-2.404 2.773 2.773 0 00-.966-.686 2.704 2.704 0 00-1.156-.214 2.736 2.736 0 00-1.155.216 2.797 2.797 0 00-.967.684 3.822 3.822 0 00-.844 2.404c0 .878.298 1.728.844 2.403.275.29.606.518.971.671.365.154.757.228 1.151.219zm13.445-7.684a3.78 3.78 0 011.623-1.306 5.863 5.863 0 012.353-.445v3.194l-.749-.049a2.977 2.977 0 00-1.21.179 3.053 3.053 0 00-1.047.652 3.372 3.372 0 00-.656 1.16c-.14.428-.195.881-.16 1.332v5.627h-3.361V21.152h3.207v1.613zm22.444-1.751a4.542 4.542 0 011.856.298 4.643 4.643 0 011.592 1.027c.46.538.81 1.165 1.029 1.845.22.68.304 1.397.248 2.111v6.824h-3.351v-6.35a3.347 3.347 0 00-.567-2.115 2.014 2.014 0 00-.739-.54 1.963 1.963 0 00-.894-.153 2.3 2.3 0 00-1.016.176 2.368 2.368 0 00-.847.605 3.452 3.452 0 00-.691 2.334v5.984h-3.352v-6.29c0-1.88-.739-2.809-2.199-2.809a2.29 2.29 0 00-1.006.18 2.35 2.35 0 00-.838.602 3.452 3.452 0 00-.692 2.333v5.984h-3.361V21.152h3.198v1.375a4.24 4.24 0 011.585-1.147 5.158 5.158 0 012.055-.405 4.76 4.76 0 012.209.504 3.882 3.882 0 011.594 1.444 4.832 4.832 0 011.796-1.434 5.618 5.618 0 012.372-.515l.019.04z" fill="#333"/><path fill-rule="evenodd" clip-rule="evenodd" d="M23.954 18.829l10.326 5.997a1.145 1.145 0 01.566.991v18.69a1.146 1.146 0 01-.654 1.03l-16.195 9.305a1.169 1.169 0 01-1.172 0L.566 45.506A1.146 1.146 0 010 44.514V25.817a1.146 1.146 0 01.678-1.047l10.198-5.854v-7.774a1.15 1.15 0 01.342-.808 1.16 1.16 0 01.815-.334c.239.002.472.073.67.206l4.72 2.705 4.784-2.752a1.153 1.153 0 011.575.41c.102.174.155.372.156.573v7.687h.016zm8.588 17.76l-14.019-8.043a2.292 2.292 0 01-2.062.526 2.293 2.293 0 01-1.605-1.392 2.266 2.266 0 01.242-2.104 2.284 2.284 0 011.879-.996 2.303 2.303 0 011.615.67c.43.426.67 1.003.673 1.607.002.165-.017.33-.056.491l13.325 7.655v-8.527l-10.287-5.981a1.145 1.145 0 01-.606-1.008v-6.346l-3.644 2.102a1.16 1.16 0 01-1.148 0l-3.668-2.102v6.441a1.146 1.146 0 01-.574.992L2.99 26.127l14.975 8.599a2.303 2.303 0 013.723 1.159c.13.503.085 1.036-.13 1.51a2.29 2.29 0 01-1.051 1.097 2.308 2.308 0 01-2.815-.582 2.278 2.278 0 01-.524-1.423 2.45 2.45 0 01.08-.603L2.336 27.317v16.579l15.15 8.725 7.098-4.077-12.759-7.33a2.264 2.264 0 01-1.45.516c-.454 0-.896-.133-1.272-.384a2.266 2.266 0 01-.347-3.503 2.293 2.293 0 012.494-.493 2.268 2.268 0 011.413 2.103c0 .204-.03.407-.088.603l13.396 7.695 6.65-3.816v-7.258l-.08-.087zM16.984 26.167a.705.705 0 00-.648.431.695.695 0 00.512.952.704.704 0 00.838-.684.688.688 0 00-.432-.648.699.699 0 00-.27-.05zM10 40.001h.295a.703.703 0 00.702-.698.691.691 0 00-.63-.405.712.712 0 00-.71.698.687.687 0 00.415.635L10 40zm9.72-4.197h-.295a.698.698 0 00-.65.43.686.686 0 00-.051.268.697.697 0 00.708.613.704.704 0 00.687-.636.695.695 0 00-.398-.675z" fill="#EA0020"/><path fill-rule="evenodd" clip-rule="evenodd" d="M38.48 1.71h-.96a5.3 5.3 0 00-3.784 1.623 5.623 5.623 0 00-1.575 3.896v2.572h.96a5.3 5.3 0 003.784-1.622 5.623 5.623 0 001.576-3.897V1.711zM37.52 0h2.632v4.282a7.37 7.37 0 01-2.065 5.113 6.948 6.948 0 01-4.965 2.127H30.49V7.228a7.35 7.35 0 012.063-5.112A6.928 6.928 0 0137.52 0z" fill="#78C273"/></svg>