<svg width="212" height="55" viewBox="0 0 212 55" fill="none" xmlns="http://www.w3.org/2000/svg">
<path fill-rule="evenodd" clip-rule="evenodd" d="M56.253 47.5292H51.3718L50.3231 49.9292H49.365L53.3657 40.9294H54.2721L58.2728 49.9292H57.3018L56.253 47.5292ZM55.9034 46.7559L53.7671 41.9161L51.7085 46.7026L55.9034 46.7559ZM60.3832 44.4893C60.575 44.0502 60.9029 43.6891 61.3155 43.4627C61.7892 43.2192 62.314 43.1001 62.8432 43.116V44.036H62.6361C62.3344 44.0166 62.0323 44.065 61.7506 44.1778C61.4689 44.2906 61.2144 44.4652 61.0047 44.6893C60.5936 45.2059 60.3857 45.8625 60.4221 46.5293V49.9692H59.5287V43.2094H60.3832V44.5427V44.4893ZM72.6315 43.156C72.9889 43.1324 73.3472 43.1854 73.6837 43.3116C74.0202 43.4378 74.3277 43.6345 74.5866 43.8893C74.8352 44.1844 75.0249 44.5271 75.1449 44.8977C75.2648 45.2683 75.3127 45.6596 75.2857 46.0493V49.9692H74.4053V46.1426C74.4446 45.558 74.2638 44.9803 73.9004 44.5293C73.7204 44.342 73.5038 44.1964 73.2649 44.1021C73.026 44.0079 72.7704 43.9672 72.515 43.9827C72.2155 43.9661 71.9161 44.0159 71.637 44.1286C71.3578 44.2413 71.1053 44.4143 70.8965 44.636C70.4852 45.1315 70.2764 45.7719 70.3139 46.4226V49.9692H69.4205V46.1426C69.4634 45.5598 69.2873 44.9823 68.9286 44.5293C68.7467 44.341 68.5278 44.1948 68.2867 44.1006C68.0456 44.0063 67.7877 43.9661 67.5302 43.9827C67.2327 43.9663 66.9353 44.0162 66.6583 44.1289C66.3812 44.2417 66.131 44.4146 65.9247 44.636C65.7163 44.8789 65.5565 45.1617 65.4543 45.4683C65.3521 45.7748 65.3096 46.0991 65.3292 46.4226V49.9692H64.4358V43.2094H65.2903V44.4493C65.5188 44.0408 65.8557 43.7078 66.2614 43.4894C66.7074 43.2607 67.2004 43.1464 67.6985 43.156C68.2002 43.1417 68.6965 43.266 69.1357 43.516C69.5396 43.7641 69.8569 44.1375 70.042 44.5827C70.2824 44.1368 70.6418 43.7712 71.0778 43.5293C71.559 43.278 72.092 43.1499 72.6315 43.156ZM83.4426 46.8759H77.9529C77.9646 47.1995 78.0394 47.5174 78.1728 47.8106C78.3063 48.1038 78.4957 48.3663 78.7297 48.5825C79.229 49.0235 79.8724 49.2523 80.5294 49.2225C80.915 49.2303 81.2982 49.1577 81.6559 49.0092C81.9967 48.8556 82.3014 48.6283 82.5492 48.3425L83.0412 48.9292C82.7521 49.2946 82.378 49.579 81.9537 49.7558C81.493 49.947 81.0001 50.0422 80.5035 50.0358C79.8813 50.0484 79.2662 49.8969 78.7168 49.5958C78.2073 49.3128 77.7855 48.8877 77.4997 48.3692C77.2002 47.8299 77.0481 47.2171 77.0595 46.5959C77.0504 45.9783 77.1929 45.3684 77.4738 44.8226C77.7425 44.3135 78.1409 43.8894 78.6262 43.596C79.126 43.3 79.694 43.148 80.2705 43.156C80.8431 43.1464 81.4073 43.2986 81.9019 43.596C82.3857 43.881 82.7809 44.3018 83.0412 44.8093C83.3293 45.3571 83.4722 45.9733 83.4556 46.5959V46.8759H83.4426ZM80.2705 43.9427C79.9778 43.9321 79.6861 43.9821 79.4125 44.0897C79.139 44.1974 78.8892 44.3604 78.678 44.5693C78.2438 44.9966 77.9845 45.5784 77.9529 46.1959H82.614C82.5727 45.5782 82.3096 44.9983 81.876 44.5693C81.6628 44.3594 81.4108 44.1958 81.135 44.0882C80.8592 43.9805 80.5652 43.931 80.2705 43.9427ZM88.6216 43.156C88.9814 43.1394 89.3408 43.1968 89.6787 43.325C90.0166 43.4532 90.3263 43.6496 90.5896 43.9027C90.8449 44.1915 91.0408 44.5307 91.1654 44.8996C91.29 45.2685 91.3408 45.6596 91.3147 46.0493V49.9692H90.4342V46.1426C90.4699 45.5562 90.2844 44.9783 89.9163 44.5293C89.7222 44.3392 89.4921 44.1926 89.2403 44.0985C88.9885 44.0044 88.7206 43.965 88.4533 43.9827C88.144 43.9651 87.8346 44.014 87.5448 44.1265C87.255 44.239 86.9911 44.4125 86.7701 44.636C86.5594 44.8778 86.3972 45.1602 86.2927 45.4668C86.1883 45.7734 86.1437 46.0982 86.1616 46.4226V49.9692H85.2682V43.2094H86.1357V44.4493C86.3748 44.0434 86.7204 43.7152 87.1326 43.5027C87.5991 43.265 88.1142 43.1461 88.6345 43.156H88.6216ZM93.7229 43.156H94.6162V49.9158H93.7229V43.156ZM94.176 41.6761C94.0892 41.6774 94.003 41.6603 93.9228 41.6259C93.8426 41.5915 93.7702 41.5405 93.7099 41.4761C93.6523 41.4165 93.6066 41.3458 93.5755 41.268C93.5444 41.1902 93.5285 41.1069 93.5287 41.0228C93.5321 40.8483 93.6018 40.6821 93.7228 40.56C93.8438 40.4378 94.0066 40.3694 94.176 40.3694C94.3489 40.3677 94.5158 40.4346 94.6421 40.5561C94.7574 40.6773 94.8224 40.8398 94.8234 41.0094C94.8253 41.0958 94.8103 41.1816 94.7791 41.2618C94.748 41.342 94.7014 41.4149 94.6421 41.4761C94.5819 41.5405 94.5094 41.5915 94.4292 41.6259C94.3491 41.6603 94.2629 41.6774 94.176 41.6761ZM99.355 43.1027C100.074 43.0524 100.784 43.2914 101.336 43.7694C101.577 44.0287 101.762 44.3371 101.88 44.6746C101.998 45.0121 102.047 45.3714 102.022 45.7293V49.9158H101.168V48.8625C100.964 49.2251 100.657 49.5139 100.287 49.6892C99.8584 49.8966 99.3883 49.9971 98.9148 49.9825C98.2895 50.0205 97.6711 49.8318 97.1669 49.4492C96.9543 49.285 96.7825 49.0714 96.6655 48.8258C96.5484 48.5801 96.4896 48.3095 96.4936 48.0359C96.4868 47.7705 96.538 47.507 96.6433 47.2647C96.7486 47.0224 96.9054 46.8075 97.1021 46.6359C97.6685 46.2404 98.3494 46.0569 99.0313 46.1159H101.116V45.7026C101.132 45.4593 101.099 45.2151 101.019 44.9855C100.939 44.756 100.813 44.5462 100.65 44.3693C100.262 44.0405 99.7656 43.8781 99.2644 43.916C98.8539 43.9132 98.4462 43.9855 98.0603 44.1293C97.6959 44.2517 97.3607 44.4515 97.0763 44.716L96.6749 44.036C97.0303 43.7321 97.4391 43.5013 97.879 43.356C98.3509 43.1953 98.845 43.1143 99.3421 43.116L99.355 43.1027ZM99.0443 49.2625C99.4988 49.2738 99.9473 49.1537 100.339 48.9159C100.699 48.6661 100.975 48.3074 101.129 47.8892V46.7826H99.0831C97.9567 46.7826 97.3999 47.1826 97.3999 47.9959C97.3937 48.1767 97.4305 48.3563 97.5073 48.519C97.584 48.6817 97.6983 48.8225 97.8401 48.9292C98.1994 49.1746 98.627 49.2917 99.0572 49.2625H99.0443ZM107.784 43.1027C108.144 43.0853 108.503 43.1424 108.841 43.2706C109.179 43.3989 109.489 43.5957 109.752 43.8493C110.007 44.1382 110.203 44.4773 110.328 44.8463C110.452 45.2152 110.503 45.6063 110.477 45.996V49.9158H109.596V46.0893C109.638 45.5022 109.451 44.9221 109.079 44.476C108.884 44.2859 108.654 44.1392 108.402 44.0451C108.151 43.9511 107.883 43.9116 107.615 43.9293C107.306 43.9125 106.997 43.9619 106.707 44.0744C106.418 44.1868 106.154 44.3599 105.932 44.5827C105.722 44.8245 105.559 45.1068 105.455 45.4134C105.351 45.7201 105.306 46.0449 105.324 46.3693V49.9158H104.43V43.156H105.285V44.396C105.524 43.99 105.87 43.6619 106.282 43.4494C106.749 43.2131 107.264 43.0943 107.784 43.1027ZM122.155 40.3694V49.9158H121.314V48.5825C121.058 49.0219 120.691 49.3813 120.252 49.6225C119.797 49.8678 119.29 49.9916 118.776 49.9825C118.191 49.9921 117.615 49.8401 117.106 49.5425C116.608 49.263 116.199 48.8418 115.928 48.3292C115.648 47.7779 115.501 47.1649 115.501 46.5426C115.501 45.9203 115.648 45.3073 115.928 44.756C116.198 44.2394 116.607 43.8137 117.106 43.5293C117.618 43.2417 118.193 43.0947 118.776 43.1027C119.275 43.0972 119.768 43.2161 120.213 43.4494C120.647 43.6742 121.013 44.015 121.275 44.436V40.3694H122.155ZM118.854 49.1692C119.305 49.1806 119.751 49.0703 120.149 48.8492C120.515 48.6251 120.815 48.3024 121.016 47.9159C121.231 47.5067 121.343 47.048 121.34 46.5826C121.341 46.1175 121.229 45.6594 121.016 45.2493C120.815 44.8628 120.515 44.5401 120.149 44.316C119.764 44.1059 119.335 43.996 118.899 43.996C118.464 43.996 118.035 44.1059 117.65 44.316C117.28 44.5393 116.975 44.8619 116.769 45.2493C116.565 45.6624 116.459 46.1192 116.459 46.5826C116.457 47.0463 116.563 47.5035 116.769 47.9159C116.975 48.3033 117.28 48.6259 117.65 48.8492C118.045 49.0739 118.493 49.1844 118.944 49.1692H118.854ZM124.641 43.156H125.522V49.9158H124.641V43.156ZM125.082 41.6761C124.996 41.6789 124.912 41.6624 124.833 41.6279C124.755 41.5933 124.685 41.5415 124.628 41.4761C124.567 41.4191 124.517 41.3492 124.484 41.271C124.45 41.1929 124.433 41.1082 124.434 41.0228C124.434 40.9375 124.451 40.8531 124.485 40.775C124.518 40.697 124.567 40.6269 124.628 40.5694C124.685 40.504 124.755 40.4522 124.833 40.4176C124.912 40.3831 124.996 40.3666 125.082 40.3694C125.254 40.3677 125.421 40.4346 125.548 40.5561C125.607 40.6143 125.654 40.6847 125.685 40.7628C125.717 40.8409 125.731 40.925 125.729 41.0094C125.733 41.0961 125.719 41.1827 125.688 41.2632C125.657 41.3438 125.609 41.4164 125.548 41.4761C125.487 41.5405 125.415 41.5915 125.335 41.6259C125.255 41.6603 125.168 41.6774 125.082 41.6761ZM134.145 43.156V49.1025C134.182 49.5617 134.129 50.0238 133.989 50.4614C133.849 50.899 133.624 51.3029 133.329 51.6491C132.991 51.9489 132.598 52.1763 132.173 52.3182C131.749 52.4601 131.301 52.5137 130.856 52.4758C130.272 52.4837 129.69 52.3936 129.134 52.2091C128.652 52.0538 128.21 51.7896 127.839 51.4358L128.293 50.7425C128.627 51.0487 129.019 51.2802 129.445 51.4225C129.901 51.5938 130.383 51.6796 130.869 51.6758C131.198 51.7322 131.534 51.7077 131.852 51.6044C132.17 51.501 132.459 51.3217 132.696 51.0812C132.934 50.8406 133.113 50.5456 133.218 50.2202C133.323 49.8948 133.353 49.5484 133.303 49.2092V48.3559C133.028 48.7713 132.653 49.1066 132.216 49.3292C131.756 49.5582 131.25 49.6724 130.74 49.6625C130.154 49.6727 129.575 49.5306 129.056 49.2492C128.56 48.9819 128.147 48.5751 127.865 48.0759C127.576 47.557 127.428 46.9674 127.438 46.3693C127.428 45.7753 127.576 45.1899 127.865 44.676C128.142 44.1813 128.551 43.7787 129.043 43.516C129.566 43.233 130.149 43.0908 130.74 43.1027C131.26 43.0958 131.774 43.2145 132.241 43.4494C132.686 43.6745 133.062 44.0203 133.329 44.4493V43.116L134.145 43.156ZM130.778 48.8492C131.227 48.8535 131.671 48.7484 132.073 48.5426C132.442 48.3363 132.75 48.0325 132.967 47.6626C133.181 47.2536 133.288 46.794 133.277 46.3293C133.295 45.8639 133.187 45.4025 132.967 44.996C132.757 44.6238 132.446 44.3227 132.073 44.1293C131.676 43.9083 131.23 43.798 130.778 43.8094C130.329 43.8003 129.884 43.9056 129.484 44.116C129.104 44.3067 128.792 44.6143 128.59 44.996C128.366 45.4015 128.254 45.8627 128.267 46.3293C128.26 46.7952 128.371 47.2549 128.59 47.6626C128.8 48.0382 129.11 48.3438 129.484 48.5426C129.884 48.7529 130.329 48.8583 130.778 48.8492ZM136.631 43.156H137.524V49.9158H136.631V43.156ZM137.084 41.6761C136.997 41.6774 136.911 41.6603 136.831 41.6259C136.75 41.5915 136.678 41.5405 136.618 41.4761C136.558 41.4185 136.51 41.3481 136.479 41.2699C136.448 41.1916 136.433 41.1073 136.436 41.0228C136.434 40.9383 136.449 40.8543 136.48 40.7762C136.511 40.6981 136.558 40.6276 136.618 40.5694C136.678 40.505 136.75 40.454 136.831 40.4196C136.911 40.3852 136.997 40.3682 137.084 40.3694C137.168 40.3675 137.251 40.383 137.329 40.4151C137.407 40.4471 137.478 40.4951 137.537 40.5561C137.598 40.6136 137.647 40.6836 137.681 40.7617C137.714 40.8397 137.731 40.9241 137.731 41.0094C137.728 41.1852 137.659 41.3528 137.538 41.477C137.417 41.6013 137.254 41.6727 137.084 41.6761ZM143.454 49.5159C143.271 49.6729 143.06 49.7907 142.832 49.8625C142.585 49.9416 142.328 49.9821 142.069 49.9825C141.81 49.9993 141.552 49.9631 141.307 49.8762C141.063 49.7892 140.837 49.6531 140.644 49.4759C140.469 49.2814 140.334 49.0524 140.247 48.8026C140.16 48.5527 140.124 48.2874 140.139 48.0226V43.9293H138.974V43.156H140.139V41.6761H141.033V43.156H143.027V43.9293H141.033V47.9292C141.013 48.2618 141.114 48.59 141.318 48.8492C141.432 48.9584 141.567 49.042 141.714 49.0948C141.861 49.1476 142.017 49.1684 142.172 49.1559C142.352 49.1555 142.531 49.1286 142.703 49.0759C142.865 49.0164 143.014 48.9259 143.143 48.8092L143.454 49.4759V49.5159ZM147.338 43.1027C148.053 43.0545 148.759 43.2934 149.306 43.7694C149.55 44.0268 149.737 44.3348 149.855 44.6729C149.974 45.0109 150.02 45.3711 149.992 45.7293V49.9158H149.151V48.8625C148.943 49.2219 148.637 49.5097 148.27 49.6892C147.837 49.8962 147.363 49.9967 146.885 49.9825C146.26 50.0161 145.643 49.8278 145.137 49.4492C144.94 49.2739 144.782 49.057 144.673 48.8131C144.565 48.5692 144.509 48.3041 144.509 48.0359C144.509 47.7676 144.565 47.5026 144.673 47.2587C144.782 47.0148 144.94 46.7978 145.137 46.6226C145.703 46.2271 146.384 46.0436 147.066 46.1026H149.151V45.6893C149.169 45.4447 149.135 45.1989 149.053 44.9688C148.97 44.7388 148.84 44.5297 148.672 44.356C148.284 44.0259 147.788 43.8634 147.286 43.9027C146.88 43.8986 146.476 43.9709 146.095 44.116C145.728 44.2415 145.389 44.4409 145.098 44.7027L144.697 44.0227C145.052 43.7188 145.461 43.488 145.901 43.3427C146.377 43.181 146.876 43.1 147.377 43.1027H147.338ZM147.027 49.2625C147.482 49.2759 147.931 49.1557 148.322 48.9159C148.686 48.6668 148.966 48.3083 149.125 47.8892V46.7826H146.989C145.862 46.7826 145.292 47.1826 145.292 47.9959C145.288 48.1763 145.326 48.3551 145.403 48.5175C145.479 48.6798 145.592 48.821 145.733 48.9292C146.115 49.1882 146.572 49.3057 147.027 49.2625ZM152.414 40.3694H153.294V49.9158H152.414V40.3694ZM165.037 40.3694V49.9158H164.196V48.5825C163.94 49.0219 163.573 49.3813 163.134 49.6225C162.678 49.8662 162.171 49.9899 161.658 49.9825C161.069 49.9906 160.489 49.8388 159.975 49.5425C159.484 49.2586 159.08 48.8382 158.81 48.3292C158.529 47.7779 158.383 47.1649 158.383 46.5426C158.383 45.9203 158.529 45.3073 158.81 44.756C159.079 44.243 159.483 43.818 159.975 43.5293C160.492 43.2433 161.071 43.0966 161.658 43.1027C162.157 43.0972 162.65 43.2161 163.095 43.4494C163.526 43.6779 163.892 44.0179 164.157 44.436V40.3694H165.037ZM161.736 49.1692C162.187 49.1806 162.633 49.0703 163.03 48.8492C163.397 48.6251 163.697 48.3024 163.898 47.9159C164.113 47.5067 164.225 47.048 164.222 46.5826C164.222 46.1175 164.111 45.6594 163.898 45.2493C163.697 44.8628 163.397 44.5401 163.03 44.316C162.646 44.1059 162.217 43.996 161.781 43.996C161.345 43.996 160.916 44.1059 160.532 44.316C160.159 44.5354 159.853 44.859 159.651 45.2493C159.443 45.6614 159.332 46.1182 159.327 46.5826C159.33 47.0473 159.441 47.5045 159.651 47.9159C159.853 48.3062 160.159 48.6298 160.532 48.8492C160.927 49.0739 161.375 49.1844 161.826 49.1692H161.736ZM167.51 43.156H168.404V49.9158H167.51V43.156ZM167.963 41.6761C167.877 41.6774 167.79 41.6603 167.71 41.6259C167.63 41.5915 167.558 41.5405 167.497 41.4761C167.44 41.4165 167.394 41.3458 167.363 41.268C167.332 41.1902 167.316 41.1069 167.316 41.0228C167.319 40.8483 167.389 40.6821 167.51 40.56C167.631 40.4378 167.794 40.3694 167.963 40.3694C168.136 40.3677 168.303 40.4346 168.43 40.5561C168.545 40.6773 168.61 40.8398 168.611 41.0094C168.613 41.0958 168.598 41.1816 168.567 41.2618C168.535 41.342 168.489 41.4149 168.43 41.4761C168.369 41.5405 168.297 41.5915 168.217 41.6259C168.136 41.6603 168.05 41.6774 167.963 41.6761ZM173.142 43.1027C173.862 43.0524 174.572 43.2914 175.123 43.7694C175.364 44.0287 175.55 44.3371 175.668 44.6746C175.786 45.0121 175.834 45.3714 175.81 45.7293V49.9158H174.955V48.8625C174.752 49.2251 174.444 49.5139 174.075 49.6892C173.646 49.8966 173.176 49.9971 172.702 49.9825C172.077 50.0205 171.459 49.8318 170.954 49.4492C170.744 49.2836 170.575 49.0694 170.46 48.8239C170.345 48.5783 170.288 48.3083 170.294 48.0359C170.287 47.7705 170.338 47.507 170.444 47.2647C170.549 47.0224 170.706 46.8075 170.902 46.6359C171.469 46.2404 172.15 46.0569 172.832 46.1159H174.916V45.7026C174.932 45.4593 174.899 45.2151 174.819 44.9855C174.739 44.756 174.613 44.5462 174.45 44.3693C174.062 44.0405 173.566 43.8781 173.065 43.916C172.654 43.9132 172.247 43.9855 171.861 44.1293C171.496 44.2517 171.161 44.4515 170.877 44.716L170.475 44.036C170.831 43.7321 171.239 43.5013 171.679 43.356C172.151 43.1953 172.645 43.1143 173.142 43.116V43.1027ZM172.832 49.2625C173.286 49.2738 173.735 49.1537 174.126 48.9159C174.486 48.6661 174.762 48.3074 174.916 47.8892V46.7826H172.883C171.757 46.7826 171.2 47.1826 171.2 47.9959C171.194 48.1767 171.231 48.3563 171.308 48.519C171.384 48.6817 171.499 48.8225 171.641 48.9292C172 49.1746 172.427 49.2917 172.858 49.2625H172.832ZM179.979 49.9825C179.46 49.9841 178.945 49.9032 178.451 49.7425C178.035 49.6327 177.646 49.4327 177.311 49.1559L177.713 48.4359C178.028 48.6734 178.377 48.8579 178.749 48.9825C179.168 49.1169 179.604 49.1843 180.043 49.1825C180.491 49.2062 180.937 49.1097 181.338 48.9025C181.474 48.8157 181.585 48.6936 181.66 48.5484C181.735 48.4032 181.771 48.2402 181.765 48.0759C181.771 47.9685 181.752 47.8612 181.712 47.762C181.672 47.6628 181.61 47.5742 181.532 47.5026C181.358 47.3501 181.156 47.2366 180.937 47.1693C180.695 47.0981 180.371 47.0315 179.966 46.9693C179.529 46.8879 179.096 46.7811 178.671 46.6493C178.352 46.5468 178.066 46.358 177.842 46.1026C177.595 45.8077 177.47 45.4249 177.493 45.036C177.497 44.7738 177.562 44.5165 177.681 44.2848C177.8 44.0531 177.971 43.8537 178.179 43.7027C178.743 43.3102 179.416 43.1182 180.095 43.156C180.532 43.1522 180.968 43.2105 181.39 43.3294C181.761 43.4223 182.115 43.5753 182.439 43.7827L182.05 44.516C181.482 44.1208 180.807 43.9202 180.121 43.9427C179.669 43.9102 179.219 44.017 178.826 44.2493C178.693 44.336 178.585 44.4562 178.51 44.5986C178.435 44.741 178.397 44.9008 178.399 45.0627C178.393 45.1761 178.411 45.2894 178.451 45.3951C178.492 45.5009 178.553 45.5966 178.632 45.676C178.809 45.8349 179.016 45.9531 179.241 46.0226C179.487 46.0226 179.823 46.1693 180.238 46.2493C180.676 46.3197 181.108 46.4222 181.532 46.5559C181.842 46.6558 182.123 46.8346 182.348 47.0759C182.583 47.3667 182.703 47.738 182.685 48.1159C182.689 48.3933 182.624 48.6673 182.497 48.9122C182.371 49.157 182.186 49.3647 181.96 49.5159C181.363 49.8959 180.666 50.0774 179.966 50.0358L179.979 49.9825ZM187.747 43.1027C188.33 43.0982 188.904 43.245 189.417 43.5293C189.913 43.8178 190.321 44.2425 190.596 44.756C190.878 45.3061 191.02 45.9206 191.01 46.5426C191.019 47.1687 190.877 47.7873 190.596 48.3425C190.321 48.8524 189.912 49.2728 189.417 49.5558C188.905 49.8435 188.33 49.9905 187.747 49.9825C187.245 49.9938 186.747 49.8794 186.297 49.6492C185.866 49.4192 185.504 49.0737 185.248 48.6492V52.4224H184.355V43.0894H185.209V44.4227C185.461 43.9879 185.824 43.6328 186.258 43.396C186.718 43.1507 187.229 43.027 187.747 43.036V43.1027ZM187.682 49.1692C188.134 49.1806 188.58 49.0703 188.977 48.8492C189.35 48.6298 189.655 48.3062 189.858 47.9159C190.073 47.5067 190.184 47.048 190.181 46.5826C190.188 46.1167 190.077 45.657 189.858 45.2493C189.655 44.859 189.35 44.5354 188.977 44.316C188.594 44.0989 188.165 43.9851 187.728 43.9851C187.291 43.9851 186.861 44.0989 186.478 44.316C186.108 44.5393 185.804 44.8619 185.598 45.2493C185.391 45.6613 185.284 46.1188 185.287 46.5826C185.285 47.0463 185.392 47.5035 185.598 47.9159C185.804 48.3033 186.108 48.6259 186.478 48.8492C186.874 49.0739 187.321 49.1844 187.773 49.1692H187.682ZM195.516 49.9825C194.918 49.9921 194.329 49.8404 193.807 49.5425C193.3 49.2592 192.883 48.8339 192.602 48.3159C192.313 47.7722 192.162 47.1624 192.162 46.5426C192.162 45.9228 192.313 45.313 192.602 44.7693C192.879 44.2486 193.298 43.8223 193.807 43.5427C194.332 43.2532 194.919 43.1018 195.516 43.1018C196.112 43.1018 196.699 43.2532 197.225 43.5427C197.727 43.8268 198.14 44.2523 198.416 44.7693C198.707 45.3116 198.854 45.9232 198.843 46.5426C198.852 47.1618 198.705 47.7729 198.416 48.3159C198.137 48.8303 197.724 49.2549 197.225 49.5425C196.702 49.8404 196.113 49.9921 195.516 49.9825ZM195.516 49.1692C195.967 49.1806 196.413 49.0703 196.81 48.8492C197.176 48.6251 197.476 48.3024 197.678 47.9159C197.884 47.5035 197.99 47.0463 197.989 46.5826C197.988 46.1192 197.882 45.6624 197.678 45.2493C197.476 44.8628 197.176 44.5401 196.81 44.316C196.413 44.095 195.967 43.9846 195.516 43.996C195.064 43.9808 194.617 44.0913 194.221 44.316C193.851 44.5393 193.546 44.8619 193.34 45.2493C193.136 45.6624 193.03 46.1192 193.03 46.5826C193.028 47.0463 193.135 47.5035 193.34 47.9159C193.546 48.3033 193.851 48.6259 194.221 48.8492C194.617 49.0739 195.064 49.1844 195.516 49.1692ZM201.51 44.476C201.702 44.0369 202.03 43.6758 202.442 43.4494C202.916 43.2059 203.441 43.0868 203.97 43.1027V44.036H203.763C203.461 44.0166 203.159 44.065 202.878 44.1778C202.596 44.2906 202.341 44.4652 202.132 44.6893C201.721 45.2059 201.513 45.8625 201.549 46.5293V49.9692H200.656V43.2094H201.51V44.5427V44.476ZM207.854 43.1427C208.573 43.0966 209.282 43.335 209.835 43.8094C210.076 44.0687 210.262 44.3771 210.38 44.7146C210.498 45.0521 210.546 45.4114 210.522 45.7693V49.9558H209.667V48.9025C209.464 49.2651 209.156 49.5539 208.787 49.7292C208.354 49.9377 207.879 50.0382 207.401 50.0225C206.777 50.0561 206.16 49.8678 205.653 49.4892C205.456 49.3139 205.298 49.097 205.189 48.8531C205.081 48.6092 205.025 48.3441 205.025 48.0759C205.025 47.8076 205.081 47.5426 205.189 47.2987C205.298 47.0548 205.456 46.8378 205.653 46.6626C206.22 46.2671 206.901 46.0836 207.583 46.1426H209.667V45.7293C209.685 45.4847 209.651 45.2389 209.569 45.0088C209.486 44.7788 209.356 44.5697 209.188 44.396C208.801 44.0659 208.304 43.9034 207.803 43.9427C207.396 43.9386 206.993 44.0109 206.611 44.156C206.247 44.2783 205.912 44.4782 205.628 44.7427L205.226 44.0627C205.575 43.756 205.98 43.5248 206.417 43.3827C206.893 43.221 207.392 43.14 207.893 43.1427H207.854ZM207.544 49.3025C207.999 49.3182 208.448 49.1978 208.838 48.9559C209.206 48.7109 209.487 48.3511 209.641 47.9292V46.8226H207.583C206.456 46.8226 205.899 47.2226 205.899 48.0359C205.893 48.2153 205.928 48.3938 206.002 48.5562C206.077 48.7187 206.188 48.8603 206.327 48.9692C206.687 49.1989 207.108 49.3062 207.531 49.2758L207.544 49.3025Z" fill="#828282"/>
<path fill-rule="evenodd" clip-rule="evenodd" d="M61.2545 29.7368H54.2629L52.928 33.0597H49.365L56.0876 17.5526H59.5258L66.2485 33.0597H62.599L61.2545 29.7368ZM60.1597 27.0171L57.7683 21.0833L55.3866 27.0171H60.1597ZM111.002 17.5526C112.196 17.5265 113.381 17.7625 114.479 18.2449C115.418 18.6597 116.219 19.3493 116.782 20.2283C117.345 21.1072 117.645 22.1369 117.645 23.1898C117.645 24.2426 117.345 25.2723 116.782 26.1513C116.219 27.0302 115.418 27.7198 114.479 28.1346C113.378 28.6054 112.194 28.8345 111.002 28.8071H107.977V33.0795H104.491V17.5625L111.002 17.5526ZM110.81 25.86C111.661 25.9218 112.506 25.6771 113.201 25.1677C113.456 24.9092 113.658 24.6012 113.796 24.2617C113.933 23.9222 114.004 23.5578 114.004 23.1898C114.004 22.8218 113.933 22.4574 113.796 22.1178C113.658 21.7783 113.456 21.4703 113.201 21.2118C112.508 20.699 111.662 20.4507 110.81 20.5096H107.929V25.8897L110.81 25.86ZM72.3949 22.7151C72.8072 22.1327 73.3693 21.6805 74.0179 21.4096C74.7654 21.1005 75.5655 20.9491 76.3708 20.9646V24.159L75.6217 24.1095C75.2107 24.0852 74.7991 24.1463 74.4114 24.289C74.0237 24.4317 73.6678 24.6532 73.3649 24.9403C73.0722 25.2772 72.849 25.6718 72.7087 26.1002C72.5684 26.5286 72.5139 26.9818 72.5485 27.4325V33.0597H69.1872V21.1525H72.3949V22.725V22.7151ZM94.8389 20.9646C95.471 20.9322 96.1028 21.033 96.6956 21.2609C97.2885 21.4887 97.8299 21.8389 98.2867 22.2898C98.748 22.8265 99.0997 23.4534 99.3208 24.133C99.5419 24.8126 99.6279 25.5311 99.5736 26.2457V33.0696H96.2123V26.7699C96.2656 26.0183 96.0655 25.2707 95.6457 24.6535C95.4438 24.4189 95.1928 24.2347 94.9116 24.1148C94.6304 23.9948 94.3264 23.9423 94.0226 23.9612C93.6752 23.954 93.3304 24.0245 93.012 24.168C92.6937 24.3114 92.4094 24.5243 92.1787 24.7919C91.6742 25.4542 91.4277 26.2864 91.4872 27.1259V33.1092H88.1355V26.7699C88.1355 24.8908 87.4056 23.9612 85.9362 23.9612C85.5921 23.9451 85.2488 24.0067 84.9303 24.1417C84.6118 24.2766 84.3258 24.4817 84.0923 24.7425C83.5878 25.4047 83.3413 26.2369 83.4008 27.0764V33.0597H80.0491V21.1525H83.2568V22.5272C83.6865 22.0221 84.2262 21.6289 84.8318 21.38C85.4838 21.1053 86.1826 20.9674 86.887 20.9745C87.6544 20.9634 88.4139 21.1361 89.1055 21.4788C89.7545 21.7979 90.3036 22.2982 90.6901 22.9227C91.17 22.305 91.7855 21.8135 92.486 21.4887C93.2353 21.1447 94.0473 20.9693 94.8678 20.9745L94.8389 20.9646ZM121.614 16.623H124.966V33.0597H121.614V16.6329V16.623ZM134.435 20.9745C135.924 20.8743 137.395 21.3465 138.565 22.2997C139.07 22.8118 139.46 23.431 139.709 24.1141C139.957 24.7973 140.059 25.528 140.006 26.2556V33.0499H136.865V31.5664C136.231 32.674 135.06 33.2279 133.341 33.2279C132.546 33.246 131.756 33.0875 131.026 32.763C130.417 32.4914 129.897 32.0451 129.528 31.4774C129.18 30.9243 128.999 30.2771 129.009 29.6181C128.991 29.1136 129.093 28.6122 129.305 28.1572C129.518 27.7023 129.835 27.3075 130.229 27.0072C131.344 26.2685 132.661 25.9215 133.984 26.0182H136.644C136.664 25.6974 136.614 25.3761 136.5 25.077C136.385 24.778 136.208 24.5085 135.982 24.2875C135.411 23.8387 134.7 23.6205 133.984 23.6744C133.368 23.6746 132.755 23.7748 132.169 23.9711C131.62 24.1457 131.106 24.4204 130.651 24.782L129.441 22.3689C130.137 21.8847 130.906 21.5237 131.717 21.3008C132.603 21.0507 133.517 20.9243 134.435 20.925V20.9745ZM134.176 30.9235C134.713 30.9343 135.242 30.7904 135.703 30.5082C136.156 30.2406 136.498 29.8113 136.663 29.3016V28.0852H134.339C132.966 28.0852 132.275 28.55 132.275 29.4797C132.267 29.6847 132.308 29.8887 132.395 30.0733C132.482 30.2579 132.612 30.4175 132.774 30.5378C133.187 30.8152 133.674 30.9503 134.166 30.9235H134.176ZM152.145 32.496C151.775 32.7597 151.362 32.9508 150.925 33.0597C150.429 33.189 149.919 33.2522 149.408 33.2476C148.248 33.323 147.106 32.9331 146.219 32.1598C145.821 31.7424 145.515 31.2425 145.319 30.6934C145.124 30.1442 145.044 29.5585 145.086 28.9753V24.0798H143.3V21.4195H145.086V18.5218H148.447V21.4195H151.328V24.0798H148.447V28.9258C148.421 29.3501 148.555 29.7684 148.822 30.0928C148.963 30.2328 149.13 30.3411 149.313 30.4109C149.497 30.4807 149.693 30.5105 149.888 30.4983C150.375 30.5122 150.853 30.3553 151.242 30.0533L152.145 32.496ZM159.357 21.4195H162.286V24.0798H159.405V33.0696H156.054V24.0798H154.267V21.4195H156.054V20.8855C156.023 20.2925 156.111 19.6995 156.313 19.1431C156.515 18.5868 156.825 18.0791 157.225 17.6515C157.669 17.2362 158.189 16.9165 158.755 16.711C159.321 16.5055 159.92 16.4184 160.519 16.4549C161.001 16.4537 161.481 16.5101 161.95 16.623C162.351 16.7141 162.735 16.8746 163.083 17.0977L162.2 19.5998C161.802 19.3188 161.328 19.1735 160.846 19.1844C159.828 19.1844 159.319 19.758 159.319 20.9151V21.4195H159.357ZM170.997 33.2872C169.859 33.3035 168.734 33.0318 167.722 32.496C166.781 32.0075 165.995 31.2527 165.456 30.3203C164.921 29.3546 164.64 28.2622 164.64 27.1506C164.64 26.039 164.921 24.9466 165.456 23.9809C165.997 23.0506 166.783 22.2964 167.722 21.8052C168.74 21.285 169.861 21.0143 170.997 21.0143C172.133 21.0143 173.254 21.285 174.272 21.8052C175.205 22.3023 175.986 23.0553 176.529 23.9809C177.063 24.9466 177.345 26.039 177.345 27.1506C177.345 28.2622 177.063 29.3546 176.529 30.3203C175.988 31.2483 175.207 32.0019 174.272 32.496C173.26 33.0341 172.135 33.3059 170.997 33.2872ZM170.997 30.4488C171.392 30.4627 171.785 30.3906 172.151 30.2373C172.516 30.0839 172.846 29.8527 173.119 29.5588C173.654 28.8789 173.946 28.0305 173.946 27.1556C173.946 26.2806 173.654 25.4322 173.119 24.7524C172.848 24.4551 172.519 24.2211 172.153 24.0658C171.787 23.9106 171.393 23.8378 170.997 23.8524C170.602 23.8398 170.208 23.9134 169.842 24.0685C169.476 24.2236 169.147 24.4567 168.875 24.7524C168.329 25.4273 168.031 26.2776 168.031 27.1556C168.031 28.0335 168.329 28.8838 168.875 29.5588C169.15 29.8488 169.481 30.0774 169.846 30.2305C170.211 30.3836 170.603 30.4579 170.997 30.4488ZM184.442 22.7645C184.855 22.1821 185.417 21.73 186.065 21.4591C186.813 21.1499 187.613 20.9986 188.418 21.014V24.2084L187.669 24.159C187.258 24.1341 186.846 24.1949 186.459 24.3376C186.071 24.4804 185.715 24.7021 185.412 24.9897C185.12 25.3267 184.896 25.7213 184.756 26.1497C184.616 26.578 184.561 27.0313 184.596 27.4819V33.1092H181.235V21.1525H184.442V22.725V22.7645ZM206.886 21.014C207.518 20.9828 208.15 21.0841 208.742 21.312C209.335 21.5398 209.877 21.8893 210.334 22.3393C210.794 22.8768 211.144 23.504 211.363 24.1835C211.583 24.8631 211.667 25.5813 211.611 26.2952V33.1191H208.26V26.7699C208.313 26.0183 208.113 25.2707 207.693 24.6535C207.49 24.4181 207.237 24.2335 206.954 24.1136C206.671 23.9936 206.366 23.9415 206.06 23.9612C205.713 23.9422 205.366 24.0023 205.044 24.1374C204.722 24.2725 204.433 24.4791 204.197 24.7425C203.693 25.4047 203.446 26.2369 203.506 27.0764V33.0597H200.154V26.7699C200.154 24.8908 199.415 23.9612 197.955 23.9612C197.611 23.9444 197.267 24.0057 196.949 24.1407C196.63 24.2757 196.344 24.4811 196.111 24.7425C195.606 25.4047 195.36 26.2369 195.419 27.0764V33.0597H192.058V21.1525H195.256V22.5272C195.691 22.0238 196.234 21.6312 196.841 21.38C197.493 21.1053 198.192 20.9674 198.896 20.9745C199.661 20.962 200.417 21.1348 201.105 21.4788C201.757 21.7964 202.31 22.2968 202.699 22.9227C203.178 22.3037 203.794 21.8119 204.495 21.4887C205.241 21.146 206.05 20.9707 206.867 20.9745L206.886 21.014Z" fill="#333333"/>
<path fill-rule="evenodd" clip-rule="evenodd" d="M23.9537 18.8289L34.2799 24.8258C34.4533 24.9273 34.5969 25.0723 34.6962 25.2463C34.7956 25.4203 34.8473 25.6173 34.846 25.8174V44.5064C34.8451 44.7219 34.7834 44.9329 34.6677 45.1153C34.5521 45.2976 34.3873 45.4439 34.1922 45.5376L17.9971 54.8424C17.8192 54.9455 17.617 54.9999 17.4111 54.9999C17.2051 54.9999 17.0029 54.9455 16.825 54.8424L0.566174 45.5059C0.39276 45.4044 0.249178 45.2594 0.149818 45.0854C0.0504576 44.9114 -0.00119922 44.7144 2.11314e-05 44.5143V44.5143V25.8174C2.69307e-05 25.5966 0.0639459 25.3804 0.184136 25.1947C0.304325 25.009 0.475709 24.8617 0.677809 24.7703L10.8764 18.9161V11.1423C10.8786 10.8386 11.0013 10.5481 11.2179 10.3341C11.4345 10.1201 11.7274 9.99999 12.0327 10C12.2715 10.0016 12.5045 10.0734 12.7025 10.2063L17.423 12.9112L22.2074 10.1587C22.3817 10.0567 22.58 10.0023 22.7823 10.001C22.9845 9.99976 23.1835 10.0517 23.3592 10.1515C23.5348 10.2513 23.6808 10.3955 23.7823 10.5695C23.8839 10.7435 23.9375 10.9411 23.9377 11.1423V18.8289H23.9537ZM32.5416 36.5897L18.5234 28.5462C18.2482 28.7935 17.9166 28.9705 17.5574 29.062C17.1981 29.1535 16.8219 29.1568 16.461 29.0716C16.1002 28.9864 15.7656 28.8152 15.486 28.5728C15.2064 28.3304 14.9903 28.024 14.8561 27.68C14.722 27.3361 14.6738 26.9649 14.7159 26.5983C14.758 26.2317 14.889 25.8808 15.0976 25.5758C15.3062 25.2708 15.5862 25.0208 15.9135 24.8473C16.2408 24.6738 16.6056 24.5821 16.9765 24.5799C17.5828 24.582 18.1637 24.8226 18.5924 25.2491C19.0211 25.6756 19.2629 26.2534 19.265 26.8566C19.2666 27.0221 19.2479 27.1873 19.2092 27.3484L32.5336 35.0032V26.4758L22.2472 20.4947C22.064 20.3971 21.9109 20.2518 21.8042 20.0744C21.6974 19.8969 21.6411 19.694 21.6412 19.4873V13.1413L17.9971 15.2434C17.8223 15.3429 17.6244 15.3952 17.423 15.3952C17.2216 15.3952 17.0237 15.3429 16.8489 15.2434L13.1809 13.1413V19.5825C13.1805 19.7832 13.1273 19.9804 13.0266 20.1543C12.9259 20.3283 12.7811 20.473 12.6068 20.574L2.99024 26.1268L17.9653 34.7256C18.3613 34.3862 18.8618 34.1914 19.3841 34.1733C19.9065 34.1552 20.4195 34.3149 20.8383 34.626C21.2571 34.9371 21.5566 35.3811 21.6875 35.8845C21.8184 36.3879 21.7727 36.9206 21.558 37.3947C21.3433 37.8688 20.9725 38.2559 20.5068 38.492C20.0411 38.728 19.5084 38.799 18.9966 38.6932C18.4849 38.5873 18.0248 38.311 17.6923 37.9098C17.3598 37.5086 17.1748 37.0065 17.1679 36.4866C17.1693 36.2831 17.1961 36.0806 17.2476 35.8837L2.33638 27.3166V43.8956L17.4868 52.6213L24.5836 48.544L11.8253 41.2144C11.4174 41.5503 10.9037 41.7329 10.3741 41.73C9.92146 41.73 9.479 41.5965 9.10266 41.3463C8.72631 41.0962 8.43299 40.7406 8.25977 40.3246C8.08656 39.9086 8.04125 39.4508 8.12955 39.0092C8.21785 38.5676 8.43581 38.1619 8.75586 37.8435C9.07592 37.5252 9.48369 37.3083 9.92762 37.2205C10.3715 37.1326 10.8317 37.1777 11.2499 37.35C11.668 37.5224 12.0255 37.8142 12.2769 38.1885C12.5284 38.5629 12.6626 39.0031 12.6626 39.4534C12.6626 39.6575 12.6331 39.8605 12.5749 40.0562L25.9711 47.7508L32.6213 43.9352V36.677L32.5416 36.5897ZM16.9845 26.1664C16.8457 26.1664 16.71 26.2074 16.5946 26.2841C16.4792 26.3608 16.3893 26.4698 16.3362 26.5974C16.2831 26.7249 16.2692 26.8653 16.2962 27.0007C16.3233 27.1361 16.3901 27.2605 16.4883 27.3581C16.5864 27.4557 16.7115 27.5222 16.8476 27.5491C16.9837 27.5761 17.1248 27.5623 17.253 27.5094C17.3812 27.4566 17.4908 27.3671 17.5679 27.2523C17.645 27.1375 17.6862 27.0026 17.6862 26.8645C17.6872 26.7725 17.6698 26.6813 17.6349 26.5961C17.6 26.5109 17.5484 26.4336 17.483 26.3685C17.4177 26.3035 17.3399 26.2521 17.2543 26.2174C17.1686 26.1827 17.0769 26.1654 16.9845 26.1664V26.1664ZM9.99931 40.0007H10.2943C10.4805 40.0007 10.6589 39.9272 10.7905 39.7963C10.9221 39.6653 10.996 39.4878 10.996 39.3027V39.3027C10.941 39.1823 10.8524 39.0801 10.7408 39.0084C10.6291 38.9367 10.499 38.8984 10.3661 38.8981C10.1793 38.8981 9.99996 38.9714 9.8671 39.1021C9.73423 39.2328 9.65853 39.4103 9.65643 39.5962C9.65589 39.7306 9.69484 39.8623 9.7685 39.975C9.84217 40.0878 9.94733 40.1767 10.0711 40.2308L9.99931 40.0007ZM19.7195 35.8044H19.4245C19.332 35.8034 19.2403 35.8207 19.1547 35.8554C19.0691 35.8901 18.9913 35.9415 18.9259 36.0065C18.8605 36.0715 18.8089 36.1489 18.774 36.2341C18.7391 36.3193 18.7217 36.4105 18.7228 36.5025V36.5025C18.7439 36.6736 18.828 36.8309 18.9588 36.9441C19.0897 37.0572 19.2579 37.1182 19.4313 37.1152C19.6046 37.1122 19.7706 37.0456 19.8975 36.9281C20.0243 36.8105 20.103 36.6505 20.1182 36.4787C20.127 36.3395 20.0938 36.201 20.0227 36.0808C19.9517 35.9606 19.8461 35.8643 19.7195 35.8044Z" fill="#EA0020"/>
<path fill-rule="evenodd" clip-rule="evenodd" d="M38.4806 1.71092H37.5202C36.1005 1.71613 34.7404 2.29922 33.7365 3.333C32.7326 4.36679 32.1664 5.76741 32.1613 7.2294V9.80074H33.1217C34.5414 9.79553 35.9015 9.21244 36.9054 8.17866C37.9093 7.14487 38.4755 5.74425 38.4806 4.28226V1.71092ZM37.5202 0H40.1516V4.28226C40.1466 6.20063 39.4043 8.03894 38.087 9.39544C36.7698 10.7519 34.9846 11.5163 33.1217 11.5215H30.4902V7.2294C30.4928 5.31113 31.2346 3.47233 32.5527 2.11684C33.8708 0.76135 35.6574 -1.79001e-06 37.5202 0Z" fill="#78C273"/>
</svg>
